<svg xmlns="http://www.w3.org/2000/svg" xmlns:xlink="http://www.w3.org/1999/xlink" width="57" height="31" version="1.1" viewBox="0 0 57 31"><title>linuxkit-block-blk@3x</title><desc>Created with Sketch.</desc><g id="Page-1" fill="none" fill-rule="evenodd" stroke="none" stroke-width="1"><path id="linuxkit-block-blk" fill="#000" d="M0,0 L57,0 L57,31 L0,31 L0,0 Z M14,4 L14,27 L53,27 L53,4 L14,4 Z M4,8 L4,23 L7,23 L7,8 L4,8 Z M7,20 L7,23 L11,23 L11,20 L7,20 Z M18,8 L21.381,8 L21.381,14.141 L21.473,14.141 L25.935,8 L29.661,8 L25.13,13.98 L30.489,22.996 L26.786,22.996 L23.129,16.671 L21.381,18.971 L21.381,22.996 L18,22.996 L18,8 Z M32.122,8 L35.503,8 L35.503,22.996 L32.122,22.996 L32.122,8 Z M41.966,10.852 L37.849,10.852 L37.849,8 L49.487,8 L49.487,10.852 L45.37,10.852 L45.37,22.996 L41.966,22.996 L41.966,10.852 Z"/></g></svg>