<svg xmlns="http://www.w3.org/2000/svg" xmlns:xlink="http://www.w3.org/1999/xlink" width="49" height="23" version="1.1" viewBox="0 0 49 23"><title>linuxkit-block@3x</title><desc>Created with Sketch.</desc><g id="Page-1" fill="none" fill-rule="evenodd" stroke="none" stroke-width="1"><path id="linuxkit-block" fill="#000" d="M10,0 L49,0 L49,23 L10,23 L10,0 Z M14,4 L14,18.996 L17.381,18.996 L17.381,14.971 L19.129,12.671 L22.786,18.996 L26.489,18.996 L21.13,9.98 L25.661,4 L21.935,4 L17.473,10.141 L17.381,10.141 L17.381,4 L14,4 Z M28.122,4 L28.122,18.996 L31.503,18.996 L31.503,4 L28.122,4 Z M37.966,6.852 L37.966,18.996 L41.37,18.996 L41.37,6.852 L45.487,6.852 L45.487,4 L33.849,4 L33.849,6.852 L37.966,6.852 Z M0,4 L3,4 L3,19 L0,19 L0,4 Z M3,16 L7,16 L7,19 L3,19 L3,16 Z"/></g></svg>